<svg width="16" height="15" viewBox="0 0 16 15" fill="none" xmlns="http://www.w3.org/2000/svg">
<path d="M14.8213 4.96517C14.8244 4.97608 14.8263 4.9831 14.8263 4.9831L10.74 10.504C10.5107 10.796 10.2655 10.9821 9.8555 10.977H5.84151C5.30717 10.9774 5.0819 10.8287 4.8576 10.2675L3.64217 6.34877C3.49155 6.00948 3.52389 5.61662 3.72851 5.30677L7.79648 0.000973829C7.78478 0.000973829 7.7733 0 7.7616 0C3.61958 0 0.261719 3.35786 0.261719 7.49988C0.261719 11.6421 3.61958 15 7.7616 15C11.9036 15 15.2614 11.6421 15.2614 7.49988C15.2614 6.61028 15.1056 5.75713 14.8213 4.96517Z" fill="#DAE64A"/>
<path d="M5.30346 5.0076H10.276V6.6225H8.60616V9.37159H6.99163V6.6225H5.30346V5.0076ZM3.64235 6.34871L4.8576 10.2675C5.0819 10.8287 5.30715 10.9773 5.84169 10.9769H9.85568C10.2655 10.982 10.5107 10.7959 10.74 10.504L14.8263 4.9831C14.8263 4.9831 14.8244 4.97608 14.8213 4.96517C13.7855 2.08105 11.0335 0.0157842 7.79648 0.000973829L3.72851 5.30677C3.52408 5.61662 3.49152 6.00944 3.64235 6.34871Z" fill="black"/>
<path d="M6.99163 9.37159H8.60616V6.6225H10.276V5.0076H5.30346V6.6225H6.99163V9.37159Z" fill="white"/>
</svg>
