<svg width="141" height="30" viewBox="0 0 141 30" fill="none" xmlns="http://www.w3.org/2000/svg">
<path d="M16.825 24V12.35L12.275 21.025H10.35L5.8 12.35V24H2.35V6.25H6.05L11.3 16.35L16.6 6.25H20.275V24H16.825ZM29.4861 24.25C28.4195 24.25 27.4611 24.075 26.6111 23.725C25.7611 23.3583 25.0361 22.8583 24.4361 22.225C23.8528 21.5917 23.4028 20.8667 23.0861 20.05C22.7695 19.2333 22.6111 18.375 22.6111 17.475C22.6111 16.5583 22.7695 15.6917 23.0861 14.875C23.4028 14.0583 23.8528 13.3333 24.4361 12.7C25.0361 12.0667 25.7611 11.575 26.6111 11.225C27.4611 10.8583 28.4195 10.675 29.4861 10.675C30.5528 10.675 31.5028 10.8583 32.3361 11.225C33.1861 11.575 33.9111 12.0667 34.5111 12.7C35.1111 13.3333 35.5611 14.0583 35.8611 14.875C36.1778 15.6917 36.3361 16.5583 36.3361 17.475C36.3361 18.375 36.1778 19.2333 35.8611 20.05C35.5611 20.8667 35.1111 21.5917 34.5111 22.225C33.9278 22.8583 33.2111 23.3583 32.3611 23.725C31.5111 24.075 30.5528 24.25 29.4861 24.25ZM26.0611 17.475C26.0611 18.2417 26.2111 18.925 26.5111 19.525C26.8111 20.1083 27.2195 20.5667 27.7361 20.9C28.2528 21.2333 28.8361 21.4 29.4861 21.4C30.1195 21.4 30.6945 21.2333 31.2111 20.9C31.7278 20.55 32.1361 20.0833 32.4361 19.5C32.7528 18.9 32.9111 18.2167 32.9111 17.45C32.9111 16.7 32.7528 16.025 32.4361 15.425C32.1361 14.825 31.7278 14.3583 31.2111 14.025C30.6945 13.6917 30.1195 13.525 29.4861 13.525C28.8361 13.525 28.2528 13.7 27.7361 14.05C27.2195 14.3833 26.8111 14.85 26.5111 15.45C26.2111 16.0333 26.0611 16.7083 26.0611 17.475ZM46.0473 24.25C45.0473 24.25 44.1556 24.025 43.3723 23.575C42.5889 23.125 41.9723 22.5083 41.5223 21.725V24H38.5973V5.75H41.9473V13.2C42.4139 12.4167 43.0223 11.8 43.7723 11.35C44.5389 10.9 45.4306 10.675 46.4473 10.675C47.2973 10.675 48.0723 10.8583 48.7723 11.225C49.4723 11.575 50.0723 12.0667 50.5723 12.7C51.0889 13.3333 51.4806 14.0583 51.7473 14.875C52.0306 15.6917 52.1723 16.5667 52.1723 17.5C52.1723 18.4333 52.0139 19.3083 51.6973 20.125C51.3973 20.9417 50.9723 21.6667 50.4223 22.3C49.8723 22.9167 49.2223 23.4 48.4723 23.75C47.7389 24.0833 46.9306 24.25 46.0473 24.25ZM45.1223 21.4C45.6556 21.4 46.1389 21.3 46.5723 21.1C47.0223 20.8833 47.4056 20.6 47.7223 20.25C48.0556 19.9 48.3056 19.4917 48.4723 19.025C48.6556 18.5417 48.7473 18.0417 48.7473 17.525C48.7473 16.8083 48.5973 16.15 48.2973 15.55C48.0139 14.9333 47.6139 14.4417 47.0973 14.075C46.5973 13.7083 46.0056 13.525 45.3223 13.525C44.8389 13.525 44.3723 13.6417 43.9223 13.875C43.4889 14.0917 43.0973 14.3917 42.7473 14.775C42.4139 15.1583 42.1473 15.5917 41.9473 16.075V19.2C42.0473 19.5333 42.2056 19.8333 42.4223 20.1C42.6556 20.3667 42.9223 20.6 43.2223 20.8C43.5223 20.9833 43.8306 21.1333 44.1473 21.25C44.4806 21.35 44.8056 21.4 45.1223 21.4ZM54.442 24V10.9H57.792V24H54.442ZM54.442 9.075V5.75H57.792V9.075H54.442ZM66.8891 24.25C65.8391 24.25 64.8891 24.075 64.0391 23.725C63.1891 23.3583 62.4641 22.8667 61.8641 22.25C61.2641 21.6167 60.7974 20.9 60.4641 20.1C60.1474 19.2833 59.9891 18.425 59.9891 17.525C59.9891 16.275 60.2641 15.1333 60.8141 14.1C61.3807 13.0667 62.1807 12.2417 63.2141 11.625C64.2641 10.9917 65.4974 10.675 66.9141 10.675C68.3474 10.675 69.5724 10.9917 70.5891 11.625C71.6057 12.2417 72.3807 13.0667 72.9141 14.1C73.4641 15.1167 73.7391 16.2167 73.7391 17.4C73.7391 17.6 73.7307 17.8083 73.7141 18.025C73.6974 18.225 73.6807 18.3917 73.6641 18.525H63.5391C63.6057 19.1917 63.7974 19.775 64.1141 20.275C64.4474 20.775 64.8641 21.1583 65.3641 21.425C65.8807 21.675 66.4307 21.8 67.0141 21.8C67.6807 21.8 68.3057 21.6417 68.8891 21.325C69.4891 20.9917 69.8974 20.5583 70.1141 20.025L72.9891 20.825C72.6724 21.4917 72.2141 22.0833 71.6141 22.6C71.0307 23.1167 70.3391 23.525 69.5391 23.825C68.7391 24.1083 67.8557 24.25 66.8891 24.25ZM63.4641 16.4H70.3141C70.2474 15.7333 70.0557 15.1583 69.7391 14.675C69.4391 14.175 69.0391 13.7917 68.5391 13.525C68.0391 13.2417 67.4807 13.1 66.8641 13.1C66.2641 13.1 65.7141 13.2417 65.2141 13.525C64.7307 13.7917 64.3307 14.175 64.0141 14.675C63.7141 15.1583 63.5307 15.7333 63.4641 16.4ZM75.7549 5.75H79.1049V19.8C79.1049 20.4 79.2049 20.8083 79.4049 21.025C79.6049 21.225 79.8799 21.325 80.2299 21.325C80.4965 21.325 80.7716 21.2917 81.0549 21.225C81.3382 21.1583 81.5882 21.075 81.8049 20.975L82.2549 23.525C81.8049 23.7417 81.2799 23.9083 80.6799 24.025C80.0799 24.1417 79.5382 24.2 79.0549 24.2C78.0049 24.2 77.1882 23.925 76.6049 23.375C76.0382 22.8083 75.7549 22.0083 75.7549 20.975V5.75Z" fill="#515151"/>
<path d="M84.0395 24V6.25H91.5645C92.3811 6.25 93.1311 6.41667 93.8145 6.75C94.4978 7.08333 95.0895 7.53333 95.5895 8.1C96.1061 8.66667 96.5061 9.3 96.7895 10C97.0728 10.7 97.2145 11.4167 97.2145 12.15C97.2145 13.15 96.9811 14.1 96.5145 15C96.0478 15.9 95.4061 16.6333 94.5895 17.2C93.7728 17.7667 92.8061 18.05 91.6895 18.05H87.4895V24H84.0395ZM87.4895 15.025H91.4895C91.9061 15.025 92.2811 14.9083 92.6145 14.675C92.9478 14.4417 93.2145 14.1083 93.4145 13.675C93.6145 13.225 93.7145 12.7167 93.7145 12.15C93.7145 11.5333 93.5978 11.0083 93.3645 10.575C93.1478 10.1417 92.8561 9.81667 92.4895 9.6C92.1395 9.38333 91.7561 9.275 91.3395 9.275H87.4895V15.025ZM99.2656 5.75H102.616V19.8C102.616 20.4 102.716 20.8083 102.916 21.025C103.116 21.225 103.391 21.325 103.741 21.325C104.007 21.325 104.282 21.2917 104.566 21.225C104.849 21.1583 105.099 21.075 105.316 20.975L105.766 23.525C105.316 23.7417 104.791 23.9083 104.191 24.025C103.591 24.1417 103.049 24.2 102.566 24.2C101.516 24.2 100.699 23.925 100.116 23.375C99.549 22.8083 99.2656 22.0083 99.2656 20.975V5.75ZM107.1 19.1V10.9H110.45V18.375C110.45 19.375 110.634 20.1333 111 20.65C111.367 21.15 111.909 21.4 112.625 21.4C113.059 21.4 113.484 21.3167 113.9 21.15C114.334 20.9667 114.725 20.7 115.075 20.35C115.442 20 115.75 19.5583 116 19.025V10.9H119.35V20.25C119.35 20.6 119.409 20.85 119.525 21C119.659 21.15 119.867 21.2417 120.15 21.275V24C119.817 24.05 119.534 24.0833 119.3 24.1C119.084 24.1333 118.884 24.15 118.7 24.15C118.1 24.15 117.609 24.0167 117.225 23.75C116.859 23.4667 116.642 23.0833 116.575 22.6L116.5 21.55C115.917 22.4333 115.167 23.1083 114.25 23.575C113.334 24.025 112.325 24.25 111.225 24.25C109.875 24.25 108.85 23.8167 108.15 22.95C107.45 22.0667 107.1 20.7833 107.1 19.1ZM127.504 24.25C126.388 24.25 125.321 24.0667 124.304 23.7C123.288 23.3333 122.413 22.7917 121.679 22.075L122.879 19.9C123.663 20.5333 124.429 21 125.179 21.3C125.946 21.6 126.679 21.75 127.379 21.75C128.029 21.75 128.546 21.6333 128.929 21.4C129.329 21.1667 129.529 20.8167 129.529 20.35C129.529 20.0333 129.421 19.7917 129.204 19.625C128.988 19.4417 128.671 19.2833 128.254 19.15C127.854 19.0167 127.363 18.8667 126.779 18.7C125.813 18.3833 125.004 18.075 124.354 17.775C123.704 17.475 123.213 17.1 122.879 16.65C122.563 16.1833 122.404 15.5917 122.404 14.875C122.404 14.0083 122.621 13.2667 123.054 12.65C123.504 12.0167 124.121 11.525 124.904 11.175C125.704 10.825 126.638 10.65 127.704 10.65C128.638 10.65 129.521 10.8 130.354 11.1C131.188 11.3833 131.946 11.85 132.629 12.5L131.279 14.625C130.613 14.1083 129.979 13.7333 129.379 13.5C128.779 13.25 128.171 13.125 127.554 13.125C127.204 13.125 126.871 13.1667 126.554 13.25C126.254 13.3333 126.004 13.475 125.804 13.675C125.621 13.8583 125.529 14.125 125.529 14.475C125.529 14.7917 125.613 15.0417 125.779 15.225C125.963 15.3917 126.229 15.5417 126.579 15.675C126.946 15.8083 127.388 15.9583 127.904 16.125C128.954 16.425 129.838 16.7333 130.554 17.05C131.288 17.3667 131.838 17.7583 132.204 18.225C132.571 18.675 132.754 19.3 132.754 20.1C132.754 21.4 132.279 22.4167 131.329 23.15C130.379 23.8833 129.104 24.25 127.504 24.25ZM136.783 24.2C136.116 24.2 135.541 23.975 135.058 23.525C134.591 23.0583 134.358 22.4667 134.358 21.75C134.358 21.0333 134.591 20.4583 135.058 20.025C135.541 19.575 136.116 19.35 136.783 19.35C137.466 19.35 138.041 19.575 138.508 20.025C138.974 20.4583 139.208 21.0333 139.208 21.75C139.208 22.4667 138.974 23.0583 138.508 23.525C138.041 23.975 137.466 24.2 136.783 24.2Z" fill="#0077FF"/>
</svg>
